<svg xmlns="http://www.w3.org/2000/svg" viewBox="0 0 512 512" width="512" height="512">
  <rect width="512" height="512" fill="#0f172a" rx="128" ry="128"/>
  <circle cx="256" cy="256" r="140" fill="#3b82f6" fill-opacity="0.2"/>
  <path d="M256 128C185.3 128 128 185.3 128 256s57.3 128 128 128 128-57.3 128-128-57.3-128-128-128zm0 220c-50.8 0-92-41.2-92-92s41.2-92 92-92 92 41.2 92 92-41.2 92-92 92z" fill="#3b82f6"/>
  <path d="M256 196c-33.1 0-60 26.9-60 60s26.9 60 60 60 60-26.9 60-60-26.9-60-60-60zm0 88c-15.5 0-28-12.5-28-28s12.5-28 28-28 28 12.5 28 28-12.5 28-28 28z" fill="#ffffff"/>
  <text x="50%" y="420" text-anchor="middle" fill="white" font-family="Arial, sans-serif" font-weight="bold" font-size="48" letter-spacing="4">AIONE</text>
</svg>
